<svg xmlns="http://www.w3.org/2000/svg" viewBox="0 0 1920 1080"><defs><linearGradient id="bg" x1="0" x2="1"><stop stop-color="#071014"/><stop offset=".52" stop-color="#0f1820"/><stop offset="1" stop-color="#1d100b"/></linearGradient><radialGradient id="glow"><stop stop-color="#ff9d2c" stop-opacity=".45"/><stop offset="1" stop-color="#ff5e18" stop-opacity="0"/></radialGradient><filter id="b"><feGaussianBlur stdDeviation="18"/></filter></defs><rect width="1920" height="1080" fill="url(#bg)"/><circle cx="1540" cy="280" r="380" fill="url(#glow)"/><g stroke="#7796a4" stroke-width="12" opacity=".6"><path d="M1470 260l-90 620M1470 260l95 620M1400 520h140M1360 690h220"/></g><g fill="none" stroke="#6fc5dd" stroke-opacity=".5" stroke-width="8"><path d="M1470 310c-120 50-190 150-190 270M1470 310c120 50 190 150 190 270"/><path d="M1470 250c-190 75-300 230-300 420M1470 250c190 75 300 230 300 420"/></g><g fill="#0d1317"><path d="M0 760l220-110 160 70 210-130 180 110 180-90 190 110 170-80 160 75 200-120 270 140v345H0z"/></g><g fill="#ff6820" opacity=".82"><path d="M210 875l26-112 28 64 31-148 32 143 42-80 25 133z"/><path d="M1680 870l24-104 28 60 29-135 28 130 37-73 24 122z"/></g><g fill="#ff7822" opacity=".46" filter="url(#b)"><ellipse cx="260" cy="850" rx="130" ry="40"/><ellipse cx="1720" cy="845" rx="120" ry="38"/></g></svg>