<svg xmlns="http://www.w3.org/2000/svg" viewBox="0 0 1920 900"><defs><linearGradient id="g" x1="0" y1="0" x2="1" y2="1"><stop stop-color="#081019"/><stop offset=".55" stop-color="#12212c"/><stop offset="1" stop-color="#080b0e"/></linearGradient></defs><rect width="1920" height="900" fill="url(#g)"/><g stroke="#4e829d" stroke-opacity=".13"><path d="M0 90h1920M0 180h1920M0 270h1920M0 360h1920M0 450h1920M0 540h1920M0 630h1920M0 720h1920M0 810h1920"/><path d="M120 0v900M240 0v900M360 0v900M480 0v900M600 0v900M720 0v900M840 0v900M960 0v900M1080 0v900M1200 0v900M1320 0v900M1440 0v900M1560 0v900M1680 0v900M1800 0v900"/></g><path d="M260 170v600" stroke="#df9d36" stroke-opacity=".62" stroke-width="4"/><g fill="#dfa03a"><circle cx="260" cy="220" r="10"/><circle cx="260" cy="350" r="10"/><circle cx="260" cy="500" r="10"/><circle cx="260" cy="650" r="10"/><circle cx="260" cy="755" r="10"/></g><g stroke="#df9d36" stroke-opacity=".2"><path d="M290 220h430M290 350h350M290 500h470M290 650h390M290 755h300"/></g><g transform="translate(1350 420)" fill="none" stroke="#5e9fc2" stroke-opacity=".32" stroke-width="3"><rect x="-260" y="-170" width="520" height="340" rx="20"/><circle cx="-150" cy="175" r="72"/><circle cx="130" cy="175" r="72"/><path d="M-205 125h390l-28-116h-332zM-80 8h190l85 117H-170zM15-75h115l48 83H-28z"/><rect x="105" y="-110" width="95" height="26" rx="7"/><rect x="190" y="-103" width="235" height="13" rx="6"/></g></svg>