<svg xmlns="http://www.w3.org/2000/svg" viewBox="0 0 1600 700"><defs><linearGradient id="g" x1="0" x2="1"><stop stop-color="#071014"/><stop offset=".48" stop-color="#12191d"/><stop offset="1" stop-color="#22170b"/></linearGradient></defs><rect width="1600" height="700" fill="url(#g)"/><g opacity=".14" fill="none" stroke="#e4a02f"><path d="M0 620C250 500 430 540 620 410s330-170 520-90 320 10 460-90" stroke-width="4"/><path d="M0 555C260 445 445 480 620 365s300-150 480-90 300 20 500-110"/></g><g transform="translate(1180 350)" fill="none" stroke="#f0ab31" stroke-opacity=".3"><circle r="220"/><circle r="160"/><circle r="100"/><path d="M-280 0h560M0-280v560"/></g><g fill="#efaa31" opacity=".5"><path d="M1015 335l60-34 55 34-55 34z"/><path d="M1230 215l55-32 52 32-52 30z"/><path d="M1340 405l55-32 52 32-52 30z"/></g></svg>