<svg xmlns="http://www.w3.org/2000/svg" viewBox="0 0 1920 900">
<defs><linearGradient id="g" x1="0" y1="0" x2="1" y2="1"><stop stop-color="#071019"/><stop offset=".5" stop-color="#152633"/><stop offset="1" stop-color="#080b0e"/></linearGradient><radialGradient id="fire"><stop stop-color="#e5792c" stop-opacity=".42"/><stop offset="1" stop-color="#e5792c" stop-opacity="0"/></radialGradient></defs>
<rect width="1920" height="900" fill="url(#g)"/><circle cx="1540" cy="410" r="330" fill="url(#fire)"/>
<g fill="#111b22" opacity=".92"><path d="M1030 140h180v470h-180zM1250 220h145v390h-145zM1420 100h210v510h-210zM1670 250h150v360h-150z"/><path d="M980 610h900v290H980z"/></g>
<g stroke="#5a7688" stroke-opacity=".18"><path d="M0 730h1920M0 790h1920"/><path d="M1150 120v580M1360 170v530M1590 90v610"/></g>
<g fill="#0a0d10" stroke="#8aa1ae" stroke-opacity=".18" stroke-width="2" transform="translate(1510 600)"><path d="M-240 45h420l-35 108h-345z"/><path d="M-100-18H68l92 63h-330z"/><rect x="55" y="-70" width="100" height="27" rx="8"/><rect x="145" y="-64" width="250" height="14" rx="7"/><circle cx="-145" cy="155" r="41"/><circle cx="-40" cy="155" r="41"/><circle cx="65" cy="155" r="41"/><circle cx="170" cy="155" r="41"/></g>
<g fill="#e68029" opacity=".3"><circle cx="1340" cy="665" r="4"/><circle cx="1460" cy="735" r="3"/><circle cx="1710" cy="620" r="5"/><circle cx="1110" cy="690" r="3"/></g>
</svg>