<svg xmlns="http://www.w3.org/2000/svg" viewBox="0 0 1920 1080"><defs><linearGradient id="bg" x1="0" x2="1"><stop stop-color="#080a0c"/><stop offset=".55" stop-color="#17100d"/><stop offset="1" stop-color="#0a0d10"/></linearGradient><filter id="b"><feGaussianBlur stdDeviation="16"/></filter></defs><rect width="1920" height="1080" fill="url(#bg)"/><g fill="#15181b" stroke="#373f44"><rect x="980" y="170" width="260" height="330" rx="8"/><rect x="1270" y="130" width="290" height="390" rx="8"/><rect x="1585" y="190" width="220" height="310" rx="8"/></g><g stroke="#8a5d27" stroke-width="4" opacity=".8"><path d="M1030 230h160M1030 280h160M1030 330h160M1320 210h190M1320 260h190M1320 310h190M1630 250h130M1630 300h130"/></g><g transform="translate(1400 665)" fill="none" stroke="#d99e33" stroke-width="14"><circle r="120"/><path d="M0-86L34-24 106-12 54 40 66 110 0 78-66 110-54 40-106-12-34-24Z" fill="#6f4a1d" stroke-width="8"/></g><g fill="#ff6120" opacity=".8"><path d="M170 870l28-120 28 68 32-160 34 154 44-86 26 144z"/><path d="M1730 860l25-105 26 60 30-135 28 130 36-74 24 124z"/></g><g fill="#ff7523" opacity=".5" filter="url(#b)"><ellipse cx="230" cy="845" rx="135" ry="42"/><ellipse cx="1760" cy="840" rx="120" ry="38"/></g></svg>