<svg xmlns="http://www.w3.org/2000/svg" viewBox="0 0 320 320">
  <path d="M102.02 121.20 L102.02 272.50 L102.02 293.01 L105.45 293.52 L109.61 293.52 L109.61 295.45 L110.49 295.45 L110.49 293.52 L118.72 293.52 L118.72 295.45 L119.60 295.45 L119.60 293.52 L128.01 293.52 L128.01 295.45 L128.90 295.45 L128.90 293.52 L137.30 293.52 L137.30 295.45 L138.18 295.45 L138.18 293.52 L141.93 293.52 L141.93 295.89 L144.60 295.89 L144.60 293.52 L155.10 293.52 L155.40 294.30 L158.74 294.30 L158.74 295.61 L161.41 295.61 L161.41 294.30 L164.60 294.30 L164.90 293.52 L175.40 293.52 L175.40 295.89 L178.07 295.89 L178.07 293.52 L182.22 293.52 L182.22 295.45 L183.10 295.45 L183.10 293.52 L191.33 293.52 L191.33 295.45 L192.22 295.45 L192.22 293.52 L200.63 293.52 L200.63 295.45 L201.51 295.45 L201.51 293.52 L209.91 293.52 L209.91 295.45 L210.79 295.45 L210.79 293.52 L214.55 293.52 L217.98 293.01 L217.98 272.50 L217.98 121.20 L217.98 14.29 L175.66 14.29 L175.66 16.75 L174.66 16.92 L145.34 16.92 L144.34 16.75 L144.34 14.29 L102.02 14.29 Z" fill="#6d736f"/>
</svg>
