<svg xmlns="http://www.w3.org/2000/svg" viewBox="0 0 1920 1080"><defs><linearGradient id="bg" x1="0" y1="0" x2="1" y2="1"><stop stop-color="#071015"/><stop offset=".48" stop-color="#12202a"/><stop offset="1" stop-color="#1f130b"/></linearGradient><radialGradient id="sun"><stop stop-color="#ffb34a" stop-opacity=".55"/><stop offset="1" stop-color="#ff6a1f" stop-opacity="0"/></radialGradient><filter id="b"><feGaussianBlur stdDeviation="18"/></filter></defs><rect width="1920" height="1080" fill="url(#bg)"/><circle cx="1520" cy="230" r="390" fill="url(#sun)"/><g fill="#0c1419"><path d="M0 650l220-250 180 160 210-300 230 300 170-190 180 230 220-260 190 230 160-160 180 210v460H0z"/></g><g fill="#192026"><path d="M0 820l260-100 210 70 170-80 210 90 190-95 210 100 190-80 220 110 250-70v315H0z"/></g><g transform="translate(1320 650) scale(1.0)" fill="#101517" stroke="#63727a" stroke-width="3"><path d="M-260 90h470l-42 120h-390z"/><path d="M-145-20H70l110 110h-410z"/><path d="M-62-118H78l62 98H-112z"/><rect x="72" y="-160" width="130" height="34" rx="10"/><rect x="190" y="-151" width="280" height="18" rx="9"/></g><g fill="#ff6d20" opacity=".8"><path d="M260 860l25-105 28 64 32-145 28 137 38-79 24 128z"/><path d="M1660 855l24-98 30 58 30-130 28 127 36-72 22 115z"/></g><g fill="#ff7a22" opacity=".5" filter="url(#b)"><ellipse cx="310" cy="840" rx="130" ry="40"/><ellipse cx="1700" cy="835" rx="120" ry="38"/></g></svg>