<svg xmlns="http://www.w3.org/2000/svg" viewBox="0 0 1920 900"><defs><linearGradient id="g" x1="0" y1="0" x2="1" y2="1"><stop stop-color="#09131a"/><stop offset=".5" stop-color="#1b2d34"/><stop offset="1" stop-color="#0b0f12"/></linearGradient><linearGradient id="snow" x1="0" y1="0" x2="0" y2="1"><stop stop-color="#516470"/><stop offset="1" stop-color="#172026"/></linearGradient></defs><rect width="1920" height="900" fill="url(#g)"/><path d="M0 560L210 350l175 145 175-220 205 205 220-270 250 260 215-190 185 190 285-145v575H0z" fill="#18242a"/><path d="M0 650c260-60 445-25 665 15 270 50 495-30 730-15 225 14 350 65 525 40v210H0z" fill="url(#snow)" opacity=".62"/><g fill="none" stroke="#df9c35" stroke-opacity=".4"><circle cx="1280" cy="590" r="72" stroke-width="4"/><circle cx="1280" cy="590" r="36"/><path d="M1180 590h200M1280 490v200"/><circle cx="1580" cy="470" r="62" stroke-width="4"/><path d="M1495 470h170M1580 385v170"/></g><g fill="#0c1114" stroke="#93a4aa" stroke-opacity=".16" stroke-width="2" transform="translate(1505 610)"><path d="M-210 42h370l-31 96h-304z"/><path d="M-88-18H56l80 60h-285z"/><rect x="48" y="-65" width="88" height="24" rx="7"/><rect x="126" y="-60" width="220" height="13" rx="6"/><circle cx="-128" cy="140" r="36"/><circle cx="-34" cy="140" r="36"/><circle cx="60" cy="140" r="36"/><circle cx="154" cy="140" r="36"/></g></svg>