<svg xmlns="http://www.w3.org/2000/svg" viewBox="0 0 1600 700"><defs><linearGradient id="g" x1="0" x2="1"><stop stop-color="#090d0f"/><stop offset=".52" stop-color="#17150f"/><stop offset="1" stop-color="#0a0e11"/></linearGradient></defs><rect width="1600" height="700" fill="url(#g)"/><g opacity=".18" stroke="#e6a02d" fill="none"><path d="M0 580C240 470 430 510 620 400s310-160 520-90 300-15 460-100" stroke-width="3"/><path d="M0 630C280 520 500 560 710 455s330-150 500-100 260 0 390-90"/></g><g transform="translate(1110 355) scale(1.15)" fill="#191b1b" stroke="#d38e1d" stroke-opacity=".38" stroke-width="3"><path d="M-250 50h470l-30 95h-390z"/><path d="M-120-35h190l85 85h-350z"/><path d="M-35-120h115l55 85H-85z"/><rect x="35" y="-160" width="110" height="32" rx="10"/><rect x="130" y="-153" width="290" height="18" rx="9"/><circle cx="-145" cy="145" r="46"/><circle cx="-35" cy="145" r="46"/><circle cx="75" cy="145" r="46"/><circle cx="185" cy="145" r="46"/></g></svg>